{
    "asset" : {
        "generator" : "Khronos glTF Blender I/O v0.9.36",
        "version" : "2.0"
    },
    "scene" : 0,
    "scenes" : [
        {
            "name" : "Scene",
            "nodes" : [
                0,
                1
            ]
        }
    ],
    "nodes" : [
        {
            "mesh" : 0,
            "name" : "B",
            "scale" : [
                10,
                10,
                10
            ]
        },
        {
            "mesh" : 1,
            "name" : "A",
            "scale" : [
                10,
                10,
                10
            ]
        }
    ],
    "materials" : [
        {
            "doubleSided" : true,
            "name" : "SVGMat.001",
            "pbrMetallicRoughness" : {}
        },
        {
            "doubleSided" : true,
            "name" : "SVGMat.002",
            "pbrMetallicRoughness" : {}
        }
    ],
    "meshes" : [
        {
            "name" : "B",
            "primitives" : [
                {
                    "attributes" : {
                        "POSITION" : 0,
                        "NORMAL" : 1
                    },
                    "indices" : 2,
                    "material" : 0
                }
            ]
        },
        {
            "name" : "A",
            "primitives" : [
                {
                    "attributes" : {
                        "POSITION" : 3,
                        "NORMAL" : 4
                    },
                    "indices" : 5,
                    "material" : 1
                }
            ]
        }
    ],
    "accessors" : [
        {
            "bufferView" : 0,
            "componentType" : 5126,
            "count" : 1643,
            "max" : [
                0.009810244664549828,
                0.010000000707805157,
                0.012254573404788971
            ],
            "min" : [
                0.000936996890231967,
                0,
                0.0003019201976712793
            ],
            "type" : "VEC3"
        },
        {
            "bufferView" : 1,
            "componentType" : 5126,
            "count" : 1643,
            "type" : "VEC3"
        },
        {
            "bufferView" : 2,
            "componentType" : 5123,
            "count" : 3108,
            "type" : "SCALAR"
        },
        {
            "bufferView" : 3,
            "componentType" : 5126,
            "count" : 68,
            "max" : [
                0.010724663734436035,
                0.010000000707805157,
                0.012254573404788971
            ],
            "min" : [
                0,
                0,
                0.0003019201976712793
            ],
            "type" : "VEC3"
        },
        {
            "bufferView" : 4,
            "componentType" : 5126,
            "count" : 68,
            "type" : "VEC3"
        },
        {
            "bufferView" : 5,
            "componentType" : 5123,
            "count" : 132,
            "type" : "SCALAR"
        }
    ],
    "bufferViews" : [
        {
            "buffer" : 0,
            "byteLength" : 19716,
            "byteOffset" : 0
        },
        {
            "buffer" : 0,
            "byteLength" : 19716,
            "byteOffset" : 19716
        },
        {
            "buffer" : 0,
            "byteLength" : 6216,
            "byteOffset" : 39432
        },
        {
            "buffer" : 0,
            "byteLength" : 816,
            "byteOffset" : 45648
        },
        {
            "buffer" : 0,
            "byteLength" : 816,
            "byteOffset" : 46464
        },
        {
            "buffer" : 0,
            "byteLength" : 264,
            "byteOffset" : 47280
        }
    ],
    "buffers" : [
        {
            "byteLength" : 47544,
            "uri" : "data:application/octet-stream;base64,"
        }
    ]
}
